<svg viewBox="0 0 1000 1400" width="2000" height="2800" xmlns="http://www.w3.org/2000/svg" preserveAspectRatio="xMidYMid meet"><defs><filter id="p" x="0" y="0" width="100%" height="100%"><feTurbulence type="fractalNoise" baseFrequency="0.85" numOctaves="2" seed="1171" stitchTiles="stitch"/><feColorMatrix values="0 0 0 0 0.55 0 0 0 0 0.51 0 0 0 0 0.46 0 0 0 0.55 0"/><feComposite in2="SourceGraphic" operator="in"/></filter></defs><rect width="1000" height="1400" rx="24" fill="#1C1A18"/><rect x="1" y="1" width="998" height="1398" rx="23" fill="none" stroke="#27231F" stroke-width="2"/><rect x="470" y="168" width="60" height="60" fill="hsl(181,25%,55%)"/><rect x="470" y="228" width="60" height="60" fill="hsl(181,25%,55%)"/><rect x="470" y="288" width="60" height="60" fill="hsl(181,25%,55%)"/><rect x="470" y="348" width="60" height="60" fill="hsl(181,25%,55%)"/><rect x="470" y="408" width="60" height="60" fill="hsl(172,36%,57%)"/><rect x="470" y="468" width="60" height="60" fill="hsl(154,55%,61%)"/><rect x="470" y="528" width="60" height="60" fill="hsl(136,55%,65%)"/><rect x="470" y="588" width="60" height="60" fill="hsl(118,55%,69%)"/><rect x="470" y="648" width="60" height="60" fill="hsl(100,65%,72%)"/><rect x="470" y="708" width="60" height="60" fill="hsl(90,65%,74%)"/><rect x="470" y="768" width="60" height="60" fill="hsl(90,65%,74%)"/><rect x="470" y="828" width="60" height="60" fill="hsl(90,65%,74%)"/><rect x="470" y="888" width="60" height="60" fill="hsl(90,65%,74%)"/><rect x="470" y="948" width="60" height="60" fill="hsl(90,65%,74%)"/><rect x="470" y="1008" width="60" height="60" fill="hsl(90,65%,74%)"/><rect x="470" y="1068" width="60" height="60" fill="hsl(90,65%,74%)"/><rect x="470" y="1128" width="60" height="60" fill="hsl(90,65%,74%)"/><rect x="470" y="1188" width="60" height="60" fill="hsl(90,65%,74%)"/><rect x="470" y="226" width="60" height="4" fill="hsl(181,25%,48%)"/><rect x="470" y="286" width="60" height="4" fill="hsl(181,25%,48%)"/><rect x="470" y="346" width="60" height="4" fill="hsl(181,25%,48%)"/><rect x="470" y="406" width="60" height="4" fill="hsl(181,25%,48%)"/><rect x="470" y="466" width="60" height="4" fill="hsl(172,36%,50%)"/><rect x="470" y="526" width="60" height="4" fill="hsl(154,55%,53%)"/><rect x="470" y="586" width="60" height="4" fill="hsl(136,55%,57%)"/><rect x="470" y="646" width="60" height="4" fill="hsl(118,55%,60%)"/><rect x="470" y="706" width="60" height="4" fill="hsl(100,65%,63%)"/><rect x="470" y="766" width="60" height="4" fill="hsl(90,65%,65%)"/><rect x="470" y="826" width="60" height="4" fill="hsl(90,65%,65%)"/><rect x="470" y="886" width="60" height="4" fill="hsl(90,65%,65%)"/><rect x="470" y="946" width="60" height="4" fill="hsl(90,65%,65%)"/><rect x="470" y="1006" width="60" height="4" fill="hsl(90,65%,65%)"/><rect x="470" y="1066" width="60" height="4" fill="hsl(90,65%,65%)"/><rect x="470" y="1126" width="60" height="4" fill="hsl(90,65%,65%)"/><rect x="470" y="1186" width="60" height="4" fill="hsl(90,65%,65%)"/><rect x="470" y="168" width="60" height="1080" fill="none" stroke="#0F0D0B" stroke-width="2"/><text x="60" y="110" font-family="ui-monospace,Menlo,Consolas,monospace" font-size="34" font-weight="500" fill="hsl(181,12%,88%)" fill-opacity="0.78">Support Layer</text><text x="940" y="110" text-anchor="end" font-family="ui-monospace,Menlo,Consolas,monospace" font-size="26" fill="hsl(181,12%,88%)" fill-opacity="0.50">0167</text><text x="60" y="152" font-family="ui-monospace,Menlo,Consolas,monospace" font-size="26" fill="hsl(181,12%,88%)" fill-opacity="0.55">0x9523…fdfd</text><text x="60" y="1340" font-family="ui-monospace,Menlo,Consolas,monospace" font-size="24" fill="hsl(181,12%,88%)" fill-opacity="0.48">Artist owned infrastructure by ripe</text><rect width="1000" height="1400" rx="24" filter="url(#p)" fill="#fff" fill-opacity="0.25"/></svg>